<svg xmlns="http://www.w3.org/2000/svg" viewBox="0 0 400 300">
  <defs>
    <linearGradient id="grad1" x1="0%" y1="0%" x2="100%" y2="100%">
      <stop offset="0%" style="stop-color:#3b82f6;stop-opacity:1" />
      <stop offset="100%" style="stop-color:#06b6d4;stop-opacity:1" />
    </linearGradient>
    <filter id="shadow" x="-20%" y="-20%" width="140%" height="140%">
      <feDropShadow dx="0" dy="4" stdDeviation="4" flood-color="#000000" flood-opacity="0.1"/>
    </filter>
  </defs>
  
  <!-- Main Dashboard Window -->
  <rect x="50" y="40" width="300" height="200" rx="10" ry="10" fill="#ffffff" filter="url(#shadow)" stroke="#e2e8f0" stroke-width="2"/>
  
  <!-- Header Bar -->
  <rect x="50" y="40" width="300" height="30" rx="10" ry="10" fill="#f8fafc"/>
  <rect x="50" y="60" width="300" height="10" fill="#f8fafc"/> <!-- Cover bottom rounded corners of header -->
  <circle cx="70" cy="55" r="4" fill="#ef4444"/>
  <circle cx="85" cy="55" r="4" fill="#f59e0b"/>
  <circle cx="100" cy="55" r="4" fill="#10b981"/>
  
  <!-- Sidebar -->
  <rect x="50" y="70" width="60" height="170" fill="#f1f5f9" rx="0" ry="0"/>
  <rect x="60" y="90" width="40" height="6" rx="3" fill="#cbd5e1"/>
  <rect x="60" y="110" width="40" height="6" rx="3" fill="#cbd5e1"/>
  <rect x="60" y="130" width="40" height="6" rx="3" fill="#cbd5e1"/>
  
  <!-- Main Content Area: Charts -->
  <!-- Bar Chart -->
  <rect x="130" y="150" width="20" height="60" rx="2" fill="url(#grad1)" opacity="0.4"/>
  <rect x="160" y="120" width="20" height="90" rx="2" fill="url(#grad1)" opacity="0.6"/>
  <rect x="190" y="100" width="20" height="110" rx="2" fill="url(#grad1)" opacity="0.8"/>
  <rect x="220" y="80" width="20" height="130" rx="2" fill="url(#grad1)"/>
  
  <!-- Pie Chart Circle -->
  <circle cx="300" cy="145" r="35" fill="none" stroke="#e2e8f0" stroke-width="10"/>
  <path d="M300 110 A35 35 0 0 1 335 145" fill="none" stroke="#3b82f6" stroke-width="10"/>
  
  <!-- Floating Elements (Growth Success) -->
  <g transform="translate(260, 200)">
    <rect x="0" y="0" width="100" height="40" rx="20" fill="#0f172a"/>
    <text x="50" y="25" font-family="Arial, sans-serif" font-size="14" font-weight="bold" fill="#ffffff" text-anchor="middle">Growth +120%</text>
  </g>
</svg>
